<svg xmlns="http://www.w3.org/2000/svg" width="48" height="48" viewBox="0 0 48 48" fill="none"><path d="M13 16C13 13.2 18 11 24 11C30 11 35 13.2 35 16C35 18.8 30 21 24 21C18 21 13 18.8 13 16Z" stroke="#2FC37D" stroke-width="2.2"/><path d="M13 23C13 25.8 18 28 24 28C30 28 35 25.8 35 23" stroke="#2FC37D" stroke-width="2.2"/><path d="M13 30C13 32.8 18 35 24 35C30 35 35 32.8 35 30" stroke="#2FC37D" stroke-width="2.2"/><path d="M13 16V30" stroke="#2FC37D" stroke-width="2.2"/><path d="M35 16V30" stroke="#2FC37D" stroke-width="2.2"/></svg>