<svg xmlns="http://www.w3.org/2000/svg" width="48" height="48" viewBox="0 0 48 48" fill="none">
  <path d="M14 17C14 14.2 18.5 12 24 12C29.5 12 34 14.2 34 17C34 19.8 29.5 22 24 22C18.5 22 14 19.8 14 17Z" stroke="#5F8DFF" stroke-width="2.2"/><path d="M14 23C14 25.8 18.5 28 24 28C29.5 28 34 25.8 34 23" stroke="#5F8DFF" stroke-width="2.2"/><path d="M14 29C14 31.8 18.5 34 24 34C29.5 34 34 31.8 34 29" stroke="#5F8DFF" stroke-width="2.2"/><path d="M14 17V29" stroke="#5F8DFF" stroke-width="2.2"/><path d="M34 17V29" stroke="#5F8DFF" stroke-width="2.2"/>
</svg>