<svg xmlns="http://www.w3.org/2000/svg" width="20" height="20" viewBox="0 0 20 20" fill="none"><path d="M12.8 4.2C13.5 3.4 13.9 2.4 13.8 1.4C12.8 1.5 11.8 2 11.1 2.8C10.5 3.5 10 4.5 10.1 5.5C11.2 5.6 12.1 5.1 12.8 4.2Z" fill="#111"/><path d="M15.6 10.5C15.6 8.6 17.2 7.7 17.2 7.6C16.2 6.1 14.7 5.9 14.2 5.9C12.9 5.7 11.6 6.7 10.9 6.7C10.1 6.7 9 5.9 7.9 5.9C5.7 5.9 3.6 7.8 3.6 11.2C3.6 12.8 4.2 14.5 5 15.7C5.7 16.8 6.5 18 7.7 17.9C8.9 17.9 9.3 17.1 10.7 17.1C12.1 17.1 12.5 17.9 13.7 17.9C15 17.9 15.8 16.8 16.5 15.7C17.3 14.4 17.6 13.1 17.6 13.1C17.6 13.1 15.6 12.3 15.6 10.5Z" fill="#111"/></svg>