<svg xmlns="http://www.w3.org/2000/svg" width="1280" height="800" viewBox="0 0 1280 800" fill="none">
  <rect width="1280" height="800" rx="28" fill="#FCFCFF"/>
  <rect x="18" y="18" width="1244" height="764" rx="24" fill="white" stroke="#ECE9F9"/>
  <rect x="42" y="38" width="220" height="724" rx="20" fill="#FAF9FF" stroke="#ECE9F9"/>
  <rect x="66" y="68" width="118" height="18" rx="9" fill="#5C2EE5" fill-opacity="0.12"/>
  <rect x="66" y="114" width="150" height="14" rx="7" fill="#5C2EE5" fill-opacity="0.82"/>
  <g fill="#B4ACD5">
    <rect x="66" y="160" width="130" height="12" rx="6"/>
    <rect x="66" y="196" width="140" height="12" rx="6"/>
    <rect x="66" y="232" width="126" height="12" rx="6"/>
    <rect x="66" y="268" width="122" height="12" rx="6"/>
    <rect x="66" y="304" width="134" height="12" rx="6"/>
    <rect x="66" y="340" width="118" height="12" rx="6"/>
    <rect x="66" y="376" width="110" height="12" rx="6"/>
    <rect x="66" y="412" width="122" height="12" rx="6"/>
  </g>
  <rect x="292" y="38" width="936" height="64" rx="18" fill="#FCFBFF" stroke="#ECE9F9"/>
  <rect x="328" y="58" width="356" height="24" rx="12" fill="#F0EDFB"/>
  <circle cx="1126" cy="70" r="14" fill="#F1EEFD"/>
  <circle cx="1168" cy="70" r="14" fill="#F1EEFD"/>
  <circle cx="1200" cy="70" r="16" fill="#E6E1FC"/>
  <rect x="292" y="126" width="936" height="612" rx="26" fill="#FFF" stroke="#ECE9F9"/>
  <text x="330" y="178" fill="#171730" font-family="Inter, Arial" font-size="42" font-weight="700">Рабочий стол</text>
  <text x="330" y="210" fill="#7A7991" font-family="Inter, Arial" font-size="20">Единый центр управления заказами и проектами</text>
  <g>
    <rect x="330" y="236" width="154" height="112" rx="22" fill="#FAF8FF" stroke="#E7E2FD"/>
    <rect x="504" y="236" width="154" height="112" rx="22" fill="#FFFBF3" stroke="#F8E3B5"/>
    <rect x="678" y="236" width="154" height="112" rx="22" fill="#F7FFFB" stroke="#CEF4DE"/>
    <rect x="852" y="236" width="154" height="112" rx="22" fill="#F7FCFF" stroke="#D5E8FF"/>
    <rect x="1026" y="236" width="164" height="112" rx="22" fill="#F8FFFA" stroke="#D5F2DF"/>
    <g font-family="Inter, Arial" font-weight="700">
      <text x="358" y="276" fill="#8F84CB" font-size="16">Заказы сегодня</text><text x="358" y="318" fill="#171730" font-size="34">128</text>
      <text x="532" y="276" fill="#C9962E" font-size="16">Ожидают оплаты</text><text x="532" y="318" fill="#171730" font-size="34">32</text>
      <text x="706" y="276" fill="#2AAC72" font-size="16">В производстве</text><text x="706" y="318" fill="#171730" font-size="34">47</text>
      <text x="880" y="276" fill="#4294FF" font-size="16">Готовы</text><text x="880" y="318" fill="#171730" font-size="34">26</text>
      <text x="1054" y="276" fill="#2AAC72" font-size="16">Выручка сегодня</text><text x="1054" y="318" fill="#171730" font-size="28">1 247 890 ₽</text>
    </g>
  </g>
  <rect x="330" y="378" width="346" height="314" rx="24" fill="#FFF" stroke="#ECE9F9"/>
  <text x="360" y="422" fill="#171730" font-family="Inter, Arial" font-size="24" font-weight="700">Заказы по проектам</text>
  <circle cx="484" cy="552" r="95" stroke="#EAE7F9" stroke-width="34"/>
  <path d="M484 457 A95 95 0 0 1 570 517" stroke="#5C2EE5" stroke-width="34" stroke-linecap="round"/>
  <path d="M569 518 A95 95 0 0 1 540 625" stroke="#3B8DFF" stroke-width="34" stroke-linecap="round"/>
  <path d="M538 626 A95 95 0 0 1 433 632" stroke="#FFAD4F" stroke-width="34" stroke-linecap="round"/>
  <path d="M430 631 A95 95 0 0 1 403 493" stroke="#20C77A" stroke-width="34" stroke-linecap="round"/>
  <circle cx="484" cy="552" r="52" fill="white"/>
  <text x="463" y="548" fill="#171730" font-family="Inter, Arial" font-size="20" font-weight="700">128</text>
  <text x="450" y="572" fill="#7A7991" font-family="Inter, Arial" font-size="14">заказов</text>
  <g font-family="Inter, Arial" font-size="16" fill="#7A7991">
    <circle cx="594" cy="500" r="6" fill="#5C2EE5"/><text x="608" y="505">Самурай</text>
    <circle cx="594" cy="535" r="6" fill="#3B8DFF"/><text x="608" y="540">Прожарим</text>
    <circle cx="594" cy="570" r="6" fill="#FFAD4F"/><text x="608" y="575">Чудо пицца</text>
    <circle cx="594" cy="605" r="6" fill="#20C77A"/><text x="608" y="610">Звезда любви</text>
  </g>
  <rect x="700" y="378" width="244" height="314" rx="24" fill="#FFF" stroke="#ECE9F9"/>
  <text x="730" y="422" fill="#171730" font-family="Inter, Arial" font-size="24" font-weight="700">Новые заказы</text>
  <g font-family="Inter, Arial" font-size="16" fill="#7A7991">
    <rect x="730" y="448" width="184" height="32" rx="12" fill="#F7F5FF"/><text x="748" y="469">Наружная вывеска</text><text x="876" y="469" fill="#5C2EE5">№1034</text>
    <rect x="730" y="490" width="184" height="32" rx="12" fill="#F7F5FF"/><text x="748" y="511">Love Story</text><text x="876" y="511" fill="#3B8DFF">№1032</text>
    <rect x="730" y="532" width="184" height="32" rx="12" fill="#F7F5FF"/><text x="748" y="553">Доставка декора</text><text x="876" y="553" fill="#20C77A">№1029</text>
    <rect x="730" y="574" width="184" height="32" rx="12" fill="#F7F5FF"/><text x="748" y="595">Фотоальбом</text><text x="876" y="595" fill="#FFAD4F">№1024</text>
  </g>
  <rect x="968" y="378" width="222" height="314" rx="24" fill="#FFF" stroke="#ECE9F9"/>
  <text x="998" y="422" fill="#171730" font-family="Inter, Arial" font-size="24" font-weight="700">Выручка, ₽</text>
  <g fill="#4A90FF">
    <rect x="1002" y="582" width="22" height="78" rx="8"/>
    <rect x="1036" y="550" width="22" height="110" rx="8"/>
    <rect x="1070" y="520" width="22" height="140" rx="8"/>
    <rect x="1104" y="482" width="22" height="178" rx="8"/>
    <rect x="1138" y="438" width="22" height="222" rx="8"/>
  </g>
  <g font-family="Inter, Arial" font-size="14" fill="#8A89A4"><text x="998" y="684">17 мая</text><text x="1134" y="684">23 мая</text></g>
</svg>