<svg xmlns="http://www.w3.org/2000/svg" width="480" height="960" viewBox="0 0 480 960" fill="none">
  <rect width="480" height="960" rx="42" fill="#FBFBFF"/>
  <rect x="28" y="42" width="424" height="62" rx="22" fill="#F4F0FF"/>
  <text x="62" y="80" fill="#171730" font-family="Inter, Arial" font-size="28" font-weight="700">Рабочий стол</text>
  <rect x="28" y="132" width="195" height="120" rx="24" fill="#F8F5FF" stroke="#E8E2FF"/>
  <rect x="257" y="132" width="195" height="120" rx="24" fill="#F7FFFB" stroke="#D5F4E1"/>
  <text x="54" y="172" fill="#8C7EDD" font-family="Inter, Arial" font-size="18" font-weight="700">Заказы</text>
  <text x="54" y="218" fill="#171730" font-family="Inter, Arial" font-size="42" font-weight="700">18</text>
  <text x="283" y="172" fill="#2AAC72" font-family="Inter, Arial" font-size="18" font-weight="700">Выручка</text>
  <text x="283" y="218" fill="#171730" font-family="Inter, Arial" font-size="34" font-weight="700">42 800 ₽</text>
  <text x="38" y="304" fill="#171730" font-family="Inter, Arial" font-size="24" font-weight="700">Новые заказы</text>
  <g font-family="Inter, Arial">
    <rect x="28" y="330" width="424" height="78" rx="22" fill="#FFF" stroke="#ECE9F9"/>
    <text x="54" y="376" fill="#171730" font-size="22" font-weight="700">#1294</text><text x="160" y="376" fill="#7A7991" font-size="18">Самурай</text><text x="336" y="376" fill="#5C2EE5" font-size="18">10:18</text>
    <rect x="28" y="424" width="424" height="78" rx="22" fill="#FFF" stroke="#ECE9F9"/>
    <text x="54" y="470" fill="#171730" font-size="22" font-weight="700">#1291</text><text x="160" y="470" fill="#7A7991" font-size="18">Прожарим</text><text x="336" y="470" fill="#3B8DFF" font-size="18">10:33</text>
    <rect x="28" y="518" width="424" height="78" rx="22" fill="#FFF" stroke="#ECE9F9"/>
    <text x="54" y="564" fill="#171730" font-size="22" font-weight="700">#1286</text><text x="160" y="564" fill="#7A7991" font-size="18">Чудо пицца</text><text x="336" y="564" fill="#20C77A" font-size="18">11:05</text>
    <rect x="28" y="612" width="424" height="78" rx="22" fill="#FFF" stroke="#ECE9F9"/>
    <text x="54" y="658" fill="#171730" font-size="22" font-weight="700">#1282</text><text x="160" y="658" fill="#7A7991" font-size="18">Звезда любви</text><text x="336" y="658" fill="#FFAD4F" font-size="18">11:32</text>
  </g>
  <rect x="28" y="730" width="424" height="172" rx="30" fill="#F8FBFF" stroke="#DDEBFF"/>
  <text x="56" y="772" fill="#171730" font-family="Inter, Arial" font-size="22" font-weight="700">Статусы</text>
  <g fill="#4A90FF"><rect x="60" y="818" width="34" height="48" rx="10"/><rect x="116" y="792" width="34" height="74" rx="10"/><rect x="172" y="770" width="34" height="96" rx="10"/><rect x="228" y="804" width="34" height="62" rx="10"/></g>
  <text x="284" y="820" fill="#171730" font-family="Inter, Arial" font-size="18" font-weight="700">8 062 300 ₽</text>
  <text x="284" y="850" fill="#7A7991" font-family="Inter, Arial" font-size="16">средняя выручка</text>
</svg>