<?xml version="1.0" standalone="no"?>
<!DOCTYPE svg PUBLIC "-//W3C//DTD SVG 20010904//EN"
 "http://www.w3.org/TR/2001/REC-SVG-20010904/DTD/svg10.dtd">
<svg version="1.0" xmlns="http://www.w3.org/2000/svg"
 width="1000.000000pt" height="267.000000pt" viewBox="0 0 1000.000000 267.000000"
 preserveAspectRatio="xMidYMid meet">

<g transform="translate(0.000000,267.000000) scale(0.100000,-0.100000)"
fill="#000000" stroke="none">
<path d="M518 1996 l3 -220 78 -85 c42 -47 101 -115 131 -151 30 -36 61 -69
68 -73 6 -4 12 -13 12 -20 1 -7 21 -34 45 -60 l45 -49 1 69 c1 37 1 87 1 110
1 36 -19 77 -134 280 -169 297 -221 393 -215 393 3 0 14 -16 26 -36 12 -19 26
-32 31 -29 13 8 80 -13 80 -25 0 -4 15 -11 34 -14 44 -8 92 -32 138 -68 35
-28 37 -32 41 -96 2 -44 4 -28 5 48 l2 115 -197 65 -198 65 3 -219z"/>
<path d="M942 1914 c1 -71 3 -110 5 -87 4 41 5 42 22 25 42 -42 62 -85 76
-164 20 -115 21 -305 3 -324 -4 -3 -4 -13 -1 -22 10 -35 -18 12 -63 102 -53
108 -61 80 -11 -39 42 -99 99 -215 107 -215 3 0 16 17 30 36 14 19 35 45 46
57 36 36 174 197 174 203 0 6 -175 262 -198 289 -9 11 -37 50 -62 85 -24 36
-64 91 -87 124 l-43 58 2 -128z"/>
<path d="M3920 1674 c-151 -41 -227 -166 -218 -363 6 -149 55 -234 166 -288
49 -24 69 -28 142 -27 95 0 136 14 193 63 32 29 87 123 87 150 0 6 -28 19 -62
29 l-61 19 -26 -51 c-36 -71 -81 -99 -147 -94 -61 5 -104 33 -130 85 -15 30
-19 61 -19 149 0 103 2 113 27 151 67 102 231 95 269 -12 7 -20 18 -34 24 -31
6 2 36 9 68 16 53 10 57 14 51 33 -25 87 -103 156 -195 176 -65 14 -102 13
-169 -5z"/>
<path d="M520 1635 c0 -36 3 -46 10 -35 8 13 15 12 51 -7 l41 -22 -43 47 c-23
26 -46 51 -51 57 -4 5 -8 -13 -8 -40z"/>
<path d="M1835 1619 l-36 -61 3 -116 3 -116 67 83 c57 69 66 86 58 102 -6 10
-17 19 -25 19 -43 0 -64 76 -36 129 7 11 10 21 7 21 -3 0 -21 -27 -41 -61z"/>
<path d="M2159 1663 c-10 -11 -10 -14 -1 -9 7 4 12 2 12 -7 0 -14 -19 -27 -48
-33 -8 -1 -15 -4 -16 -6 -1 -2 -68 -82 -149 -179 -81 -97 -147 -182 -147 -188
0 -7 22 -40 48 -75 l48 -63 59 90 c33 50 95 140 138 200 l78 110 -2 89 c-1 48
-3 88 -4 88 -1 0 -9 -8 -16 -17z"/>
<path d="M2900 1335 l0 -345 65 0 65 0 1 268 1 267 66 -267 66 -268 66 0 65 0
67 268 66 267 1 -267 1 -268 65 0 65 0 0 345 0 345 -103 0 -103 0 -59 -230
c-33 -126 -62 -230 -65 -230 -3 0 -32 104 -65 230 l-60 230 -102 0 -103 0 0
-345z"/>
<path d="M6970 1335 l0 -345 65 0 65 0 0 345 0 345 -65 0 -65 0 0 -345z"/>
<path d="M5703 1627 l-53 -32 0 -52 0 -53 -35 0 -35 0 0 -50 0 -50 35 0 35 0
0 -168 c0 -187 5 -202 66 -228 39 -16 76 -18 124 -4 34 9 35 11 32 53 l-4 44
-41 -1 -42 -1 -3 153 -3 152 46 0 45 0 0 50 0 50 -45 0 -45 0 0 85 c0 62 -3
85 -12 84 -7 0 -37 -15 -65 -32z"/>
<path d="M1408 1537 l-36 -52 54 -63 c30 -35 54 -60 54 -55 -1 4 -14 23 -30
42 -16 19 -27 38 -24 43 3 5 2 8 -3 7 -21 -4 -21 3 -3 36 11 20 15 35 9 35 -7
0 -4 11 6 26 32 49 10 33 -27 -19z m3 -30 c-10 -9 -11 -8 -5 6 3 10 9 15 12
12 3 -3 0 -11 -7 -18z"/>
<path d="M655 1520 c10 -11 20 -20 23 -20 3 0 -3 9 -13 20 -10 11 -20 20 -23
20 -3 0 3 -9 13 -20z"/>
<path d="M1700 1384 c-57 -118 -83 -192 -59 -167 11 12 82 159 108 225 43 108
16 76 -49 -58z"/>
<path d="M4562 1481 c-93 -32 -150 -107 -159 -212 -9 -90 12 -154 66 -210 107
-110 296 -101 388 19 41 54 56 111 50 187 -8 110 -70 190 -169 220 -67 20
-111 19 -176 -4z m148 -96 c44 -23 64 -69 64 -145 -1 -76 -21 -123 -64 -145
-58 -30 -126 -10 -157 48 -21 40 -23 139 -4 186 26 62 100 88 161 56z"/>
<path d="M5246 1486 c-21 -8 -51 -27 -67 -42 l-29 -28 0 37 0 37 -60 0 -60 0
0 -250 0 -250 65 0 65 0 0 155 c0 168 9 209 51 239 26 18 71 21 99 6 31 -17
40 -67 40 -236 l0 -164 66 0 65 0 -3 208 c-3 184 -5 210 -22 235 -38 56 -136
80 -210 53z"/>
<path d="M6164 1490 c-12 -4 -30 -20 -42 -34 -26 -34 -32 -33 -32 4 l0 30 -60
0 -60 0 0 -250 0 -250 69 0 70 0 3 164 c3 158 4 165 27 190 26 27 67 34 100
17 15 -9 20 -2 34 43 22 70 22 72 -14 85 -37 13 -66 13 -95 1z"/>
<path d="M6502 1481 c-93 -32 -150 -107 -159 -212 -9 -90 12 -154 66 -210 107
-110 296 -101 388 19 41 54 56 111 50 187 -8 110 -70 190 -169 220 -67 20
-111 19 -176 -4z m148 -96 c44 -23 64 -69 64 -145 -1 -76 -21 -123 -64 -145
-58 -30 -126 -10 -157 48 -21 40 -23 139 -4 186 26 62 100 88 161 56z"/>
<path d="M715 1451 c11 -13 18 -24 15 -25 -2 0 10 -26 28 -57 24 -43 31 -66
30 -104 0 -27 4 -51 10 -53 11 -3 4 -42 -8 -42 -4 0 -11 -12 -16 -27 -11 -41
-13 -84 -3 -81 10 4 129 168 129 179 0 4 -24 32 -53 63 -29 31 -52 58 -50 60
2 2 -11 16 -29 31 -18 16 -32 31 -31 35 1 4 -8 16 -20 26 l-22 19 20 -24z"/>
<path d="M1250 1327 c-41 -50 -92 -110 -112 -132 l-37 -41 109 -148 c60 -82
111 -151 114 -154 3 -2 7 124 8 282 2 157 1 286 -2 285 -3 0 -39 -41 -80 -92z"/>
<path d="M1370 1126 l0 -298 111 151 c60 83 114 153 120 156 8 5 -30 52 -213
270 -16 19 -17 5 -18 -279z"/>
<path d="M1800 923 c0 -138 3 -264 6 -281 6 -27 20 -36 186 -116 99 -47 184
-86 190 -86 6 0 8 40 5 107 -5 104 -6 108 -39 146 -18 22 -36 44 -40 51 -9 14
-29 15 -45 3 -13 -10 -70 0 -60 10 4 3 0 17 -7 32 -18 35 -20 114 -3 106 6 -4
5 -1 -4 7 -9 7 -19 23 -23 36 -4 12 -12 22 -17 22 -5 0 -9 6 -9 13 -1 6 -32
54 -70 106 l-70 95 0 -251z"/>
<path d="M900 1148 c0 -7 -36 -64 -81 -126 -44 -63 -74 -111 -67 -107 7 4 2
-3 -12 -14 -14 -12 -19 -20 -10 -19 18 4 16 -11 -11 -69 -20 -44 -51 -68 -74
-59 -8 3 -17 0 -21 -6 -5 -7 -2 -8 7 -4 8 4 6 1 -4 -7 -10 -9 -38 -44 -63 -78
-43 -61 -44 -65 -44 -141 0 -43 2 -78 4 -78 2 0 82 35 178 78 95 43 181 82
191 85 16 6 17 29 17 282 0 151 -2 275 -5 275 -3 0 -5 -6 -5 -12z"/>
<path d="M704 982 c4 -7 1 -12 -8 -12 -9 0 -16 -4 -16 -10 0 -14 16 -12 29 4
9 11 9 16 0 22 -8 4 -9 3 -5 -4z"/>
<path d="M670 933 c-8 -4 -27 -18 -42 -33 -14 -15 -32 -27 -40 -28 -7 0 -23
-4 -35 -7 -19 -6 -22 -3 -26 32 -2 21 -4 -15 -5 -81 l-2 -119 66 94 c37 52 75
106 86 122 11 15 18 27 16 26 -2 0 -10 -3 -18 -6z"/>
<path d="M2171 802 c-1 -24 -5 -31 -13 -26 -8 5 -7 0 2 -11 14 -18 15 -18 18
3 2 12 1 32 -1 45 -3 15 -5 12 -6 -11z"/>
</g>
</svg>
