<svg xmlns="http://www.w3.org/2000/svg" width="28" height="28" viewBox="0 0 28 28" fill="none"><circle cx="14" cy="14" r="13" fill="#F5F2FF" stroke="#D9D2FF"/><path d="M20.2 11.5C20 10.8 19.5 10.3 18.8 10.1C17.5 9.7 14 9.7 14 9.7C14 9.7 10.5 9.7 9.2 10.1C8.5 10.3 8 10.8 7.8 11.5C7.4 12.8 7.4 14 7.4 14C7.4 14 7.4 15.2 7.8 16.5C8 17.2 8.5 17.7 9.2 17.9C10.5 18.3 14 18.3 14 18.3C14 18.3 17.5 18.3 18.8 17.9C19.5 17.7 20 17.2 20.2 16.5C20.6 15.2 20.6 14 20.6 14C20.6 14 20.6 12.8 20.2 11.5ZM12.7 16V12L16.3 14L12.7 16Z" fill="#6D47FF"/></svg>